<svg xmlns="http://www.w3.org/2000/svg" viewBox="0 0 522 479.33"><path fill="currentColor" d="M367.67 0A153 153 0 00261 42.83 153 153 0 00154.33 0C69.23 0 0 69.23 0 154.33c0 38.41 15.43 75.94 44.63 108.51C93.16 317 248.45 473.25 249.87 474.67a15.67 15.67 0 0011.13 4.66 15.89 15.89 0 0011.11-4.58c1.48-1.48 156-156.87 205.29-211.89 29.18-32.58 44.6-70.11 44.6-108.53C522 69.23 452.77 0 367.67 0zm86.39 241.92c-41.5 46.29-161.15 167.31-193.06 199.5-26.37-26.59-150.38-151.89-193-199.48-16.71-18.68-36.62-49.05-36.62-87.61a123 123 0 01217.56-78.55A15.55 15.55 0 00261 81.25a15.52 15.52 0 0012-5.47 123 123 0 01217.63 78.55c0 38.59-19.91 68.93-36.62 87.59z"/></svg>