<svg xmlns="http://www.w3.org/2000/svg" viewBox="0 0 402.7 502.6"><g fill="currentColor"><path d="M374 130.81a14.91 14.91 0 00-14.9-13.51h-57.84c-.69-26.17-11.37-54.94-28.86-77.51C252.52 14.13 227.27 0 201.3 0s-51.22 14.13-71.1 39.79c-17.49 22.57-28.2 51.34-28.86 77.51H43.5a14.91 14.91 0 00-14.88 13.53L0 433.53v1.37c0 37.33 34.18 67.7 76.2 67.7h250.3c42 0 76.2-30.37 76.2-67.7v-1.14zM201.3 29.8c17.54 0 35 10.65 49.13 30C263 77 270.77 98.3 271.45 117.3h-140.3c.68-19 8.43-40.29 21-57.51 14.17-19.34 31.61-29.99 49.15-29.99zm-85.1 163a14.91 14.91 0 0014.9-14.9v-30.8h140.4v30.8a14.9 14.9 0 0029.8 0v-30.8h44.15l27.35 288.4c-.44 20.59-21.18 37.3-46.4 37.3H76.2c-25.22 0-46-16.71-46.4-37.31L57.15 147.1h44.15v30.8a14.91 14.91 0 0014.9 14.9z"/><path d="M201.35 429.43A115.85 115.85 0 1085.5 313.58a116 116 0 00115.85 115.85zm-94.42-115.85A94.42 94.42 0 11201.35 408a94.53 94.53 0 01-94.42-94.42z"/><path d="M173.88 325.9l15.15 15.15 12.32-12.32 12.32 12.32 15.15-15.15-12.32-12.32 49.7-49.7-15.15-15.15-49.7 49.7-49.49-49.5-15.15 15.15 49.49 49.5-12.32 12.32z"/><path d="M190.64 232.58h21.43v21.43h-21.43zm0 140.57h21.43v21.43h-21.43zm-70.29-70.29h21.43v21.43h-21.43zm140.57 0h21.43v21.43h-21.43z"/></g></svg>