<svg xmlns="http://www.w3.org/2000/svg" viewBox="0 0 169.06 169.06"><g fill="currentColor"><path d="M122.41 0H46.65A46.71 46.71 0 000 46.65v75.76a46.71 46.71 0 0046.65 46.65h75.76a46.71 46.71 0 0046.65-46.65V46.65A46.71 46.71 0 00122.41 0zm31.65 122.41a31.69 31.69 0 01-31.65 31.65H46.65A31.69 31.69 0 0115 122.41V46.65A31.69 31.69 0 0146.65 15h75.76a31.69 31.69 0 0131.65 31.65v75.76z"/><path d="M84.53 41a43.56 43.56 0 1043.56 43.56A43.61 43.61 0 0084.53 41zm0 72.12a28.56 28.56 0 1128.56-28.56 28.59 28.59 0 01-28.56 28.53zm45.39-84.87a11 11 0 107.78 3.22 11 11 0 00-7.78-3.22z"/></g></svg>