<svg xmlns="http://www.w3.org/2000/svg" viewBox="0 0 440.28 305.59"><g fill="currentColor"><path d="M257.82 17.07v18.44c0 2.43-1.87 4.64-4.78 5.65l-6.19 2.15-11.42 4-8.22 2.86-7.07 2.45 5.15-3.91 8.43-6.42a4 4 0 001.71-3.13v-25.7a4 4 0 00-1.71-3.13L220.14 0l.47.16 14.81 5.15L253 11.42c3 1.01 4.82 3.22 4.82 5.65zm-51.27 124.7l13.58 10.33-.48-.16-14.81-5.15-17.61-6.12c-2.91-1-4.77-3.22-4.77-5.64v-34.58l11 8.34 11.41 8.67v21.18a4 4 0 001.68 3.13z"/><path d="M257.82 114.42v21.04c0 .15 0 .27-.06.42a6.73 6.73 0 01-4.7 4.77l-17.61 6.11-15.09 5.25h-.17l13.55-10.33a3.93 3.93 0 001.71-3.13v-17.74a4 4 0 00-1.71-3.14l-13.58-10.33-5.16-3.92-1.94-1.42-8.22-6.25-3.3-2.5-16.69-12.73a5.55 5.55 0 01-2.39-4.39V17a2.11 2.11 0 010-.36c.22-2.25 2-4.25 4.75-5.2l17.63-6.14 15.1-5.24.16-.06-13.55 10.32a4 4 0 00-1.67 2.68 2.31 2.31 0 000 .37v56.37a4 4 0 001.71 3.14l28.88 22 20 15.2a5.53 5.53 0 012.35 4.34z"/><path d="M257.82 69.5v20.57l-22.39-17v-6.93a4 4 0 00-1.69-3.14l-13.6-10.43 15.29 5.15 3.31 1.15 14.3 5c2.96 1 4.78 3.21 4.78 5.63zM0 202.85h22.93q13.65 0 19.42 6.58t5.76 19.23q0 9.65-3.13 15.91t-10.9 7.89l15.54 51.88h-9.27l-14.92-49.87H9.52v49.87H0zm22.43 44.6q9.13 0 12.78-4.51c2.42-3 3.63-7.77 3.63-14.28s-1.15-11.36-3.44-14.28S28.86 210 22.68 210H9.52v37.46zm88.64 50q-6-8.15-5.95-23.06v-42.1q0-14.78 6-22.61t20.17-7.83q13.91 0 19.92 7.89t6 22.55v42.23q0 14.91-5.88 23t-20.05 8.08q-14.28-.01-20.21-8.15zm33-4.95q3.51-5.46 3.51-16v-46q0-10.53-3.45-15.79t-12.84-5.26q-9.53 0-13 5.2t-3.51 15.85v46q0 10.65 3.51 16t13 5.39q9.29.11 12.8-5.39zm72.06-89.65h22.05q15 0 21.3 7.7t6.27 22.12V273q0 15.17-6.08 23.24t-20.61 8.09h-22.93zm22.3 94.35q7.65 0 11.47-3.2a14.68 14.68 0 004.95-8.52 70.09 70.09 0 001.12-14v-37.81a51.46 51.46 0 00-1.37-13.22 13 13 0 00-5.27-7.58q-3.89-2.62-11.27-2.63h-12.41v87zm86.33-94.35h9.52v101.49h-9.52zm74.05 95.41q-6.27-7.33-7.14-20.24l8.39-2.5q1.13 10.77 4.82 16.54t12.22 5.76q14.28 0 14.28-14.66a20.54 20.54 0 00-2.94-11 57.26 57.26 0 00-9.46-10.9l-17.92-17.17a29.33 29.33 0 01-7.08-9.46 26.78 26.78 0 01-2.19-11q0-10.41 6.2-16.1t16.73-5.7q11.28 0 17.29 6t7 19.67l-8.15 2.13q-.75-10.28-4.32-15.28t-11.84-5q-6.51 0-10.4 3.39t-3.88 10a17.31 17.31 0 001.63 7.64 26 26 0 005.51 7.15l17.92 16.91a59.68 59.68 0 0110.83 13.34 28.87 28.87 0 013.95 14.73q0 11-6.39 17t-16.91 6q-11.89.08-18.15-7.25z"/></g></svg>