<svg xmlns="http://www.w3.org/2000/svg" viewBox="0 0 75.36 152.1"><g fill="currentColor"><path d="M75.36 17.07v18.44c0 2.43-1.87 4.64-4.78 5.65l-6.19 2.15L53 47.27l-8.22 2.86-7.07 2.45 5.15-3.91 8.43-6.42A4 4 0 0053 39.12V13.46a4 4 0 00-1.71-3.13L37.68 0l.47.16L53 5.31l17.61 6.11c2.88 1.01 4.75 3.22 4.75 5.65zm-51.27 124.7l13.58 10.33-.48-.16-14.81-5.15-17.61-6.12C1.86 139.66 0 137.45 0 135v-34.55l11 8.34 11.41 8.67v21.18a4 4 0 001.68 3.13z"/><path d="M75.36 114.42v21.04c0 .15 0 .27-.06.42a6.73 6.73 0 01-4.7 4.77L53 146.8l-15.09 5.25h-.17l13.55-10.33a3.93 3.93 0 001.71-3.08v-17.83a4 4 0 00-1.71-3.14l-13.61-10.33-5.15-3.92-1.92-1.42-8.23-6.25-3.3-2.5L2.39 80.52A5.55 5.55 0 010 76.13V17a2.11 2.11 0 010-.36c.22-2.25 2-4.25 4.75-5.2L22.38 5.3 37.48.06l.16-.06-13.55 10.32A4 4 0 0022.42 13a2.31 2.31 0 000 .37v56.37a4 4 0 001.71 3.14L53 94.84 73 110a5.53 5.53 0 012.36 4.42z"/><path d="M75.36 69.5v20.57L53 73.06v-6.92A4 4 0 0051.28 63l-13.6-10.41L53 57.74l3.31 1.15 14.3 5c2.88.98 4.75 3.19 4.75 5.61z"/></g></svg>