<svg xmlns="http://www.w3.org/2000/svg" viewBox="0 0 370.23 409.24"><path fill="#fff" d="M354.56 353.05L184.94 380.7a7 7 0 01-2.19 0L14 353.06v-336c.16-2.11.85-3.41 2.06-3.87 2.78 2.22 8.67 9.09 13.51 14.74C49.5 51.28 83 90.36 121.79 90.36h124.94c38.83 0 72.29-39.08 92.29-62.42 4.83-5.62 10.72-12.52 13.51-14.74 1.46.55 1.92 2.28 2 3.46v336.39z"/><path fill="currentColor" d="M352 0c-6.68 0-12.11 6.34-24 20.22-18.26 21.33-48.84 57.05-80.53 57.05H122.76c-31.7 0-62.26-35.72-80.53-57C30.34 6.34 24.92 0 18.24 0 5.45 0 .33 10.83 0 18.41v390.83h370.23V18.09C369.9 10.83 364.78 0 352 0zm3.42 353.53L185.8 381.18a6.71 6.71 0 01-2.19 0l-168.8-27.63v-336c.17-2.1.85-3.4 2.06-3.86 2.78 2.22 8.67 9.08 13.51 14.74 20 23.33 53.45 62.42 92.29 62.42h124.92c38.83 0 72.3-39.09 92.3-62.43 4.83-5.62 10.71-12.51 13.51-14.73 1.46.54 1.92 2.28 2 3.46v336.38z"/><path fill="currentColor" d="M216.26 237.7h-64a6.37 6.37 0 00-4.4 10.84l26.51 27a13.81 13.81 0 0019.81 0l26.51-27a6.37 6.37 0 00-4.43-10.84z"/></svg>