<svg xmlns="http://www.w3.org/2000/svg" viewBox="0 0 522.12 522.06"><path fill="currentColor" d="M506.44 395.88l-103.66-69.13a35.43 35.43 0 00-47.21 7.68l-30.23 38.87a7.94 7.94 0 01-10.15 2.12l-5.76-3.18c-18.75-10.21-42.08-22.93-89.31-70.18s-60-70.57-70.21-89.32l-3.17-5.8a8 8 0 012.13-10.2l38.8-30.19a35.46 35.46 0 007.66-47.22L126.22 15.69A35 35 0 0078.91 5l-43.3 26A65.84 65.84 0 005.45 70.22c-9.85 35.87-6.34 76.25 10.44 120 21.8 56.89 66.06 119 131.55 184.44 53.2 53.19 104.35 92.56 152.05 117 39.34 20.16 76.67 30.39 110.93 30.39h.67a156.16 156.16 0 0040.81-5.43 65.71 65.71 0 0039.1-30.1l26.06-43.32a35 35 0 00-10.62-47.32zM123 220.09l3.09 5.6c11 20.28 24.81 45.52 74.81 95.51s75.21 63.74 95.49 74.8l5.57 3.07a35 35 0 0044.73-9.2l30.16-38.79a8.19 8.19 0 0110.88-1.77l103.64 69.12a8 8 0 012.44 10.86l-26 43.4a38.9 38.9 0 01-23 17.87 130.69 130.69 0 01-34.81 4.52c-53.62 0-133.27-29.4-243.42-139.55C29.5 218.44 17.49 128.61 31.54 77.42a39.07 39.07 0 0118-23.14l43.35-26A8 8 0 0197 27.12a8 8 0 016.71 3.6l37.55 56.38 31.5 47.25a8.17 8.17 0 01-1.76 10.87l-38.77 30.16a35 35 0 00-9.23 44.71z"/></svg>