<svg xmlns="http://www.w3.org/2000/svg" viewBox="0 0 477.87 477.87"><g fill="currentColor"><path d="M238.93 0C107 0 0 107 0 238.93s107 238.94 238.93 238.94 238.94-107 238.94-238.94S370.83.14 238.93 0zm0 443.73c-113.11 0-204.8-91.69-204.8-204.8s91.69-204.8 204.8-204.8 204.8 91.69 204.8 204.8-91.73 204.68-204.8 204.8z"/><path d="M339.56 231.32a17.1 17.1 0 00-7.66-7.66l-136.54-68.27a17.07 17.07 0 00-24.69 15.28V307.2a17.06 17.06 0 0024.69 15.28l136.54-68.27a17.08 17.08 0 007.66-22.89zM204.8 279.59v-81.31l81.31 40.65z"/></g></svg>