<svg xmlns="http://www.w3.org/2000/svg" viewBox="0 0 469.33 512"><g fill="currentColor"><path d="M389.33 160a80 80 0 1180-80 80.1 80.1 0 01-80 80zm0-128a48 48 0 1048 48 48.06 48.06 0 00-48-48zm0 480a80 80 0 1180-80 80.1 80.1 0 01-80 80zm0-128a48 48 0 1048 48 48.06 48.06 0 00-48-48zM80 336a80 80 0 1180-80 80.09 80.09 0 01-80 80zm0-128a48 48 0 1048 48 48.06 48.06 0 00-48-48z"/><path d="M135.7 240.43a16 16 0 01-7.93-29.89l198-112.86a16 16 0 0115.83 27.8l-198 112.86a16.07 16.07 0 01-7.9 2.09zm197.93 176a15.91 15.91 0 01-7.89-2.11L127.79 301.46a16 16 0 0115.83-27.8l198 112.86a16 16 0 01-7.94 29.91z"/></g></svg>